<svg xmlns="http://www.w3.org/2000/svg" width="40.997" height="40.997" viewBox="0 0 40.997 40.997">
  <path id="Icon_simple-whatsapp" data-name="Icon simple-whatsapp" d="M29.89,24.567c-.514-.256-3.018-1.481-3.485-1.65s-.808-.256-1.15.256-1.317,1.647-1.613,1.985-.6.359-1.1.128a13.864,13.864,0,0,1-4.1-2.537A15.5,15.5,0,0,1,15.6,19.214c-.3-.512-.032-.794.222-1.051.232-.231.514-.589.77-.893a4.33,4.33,0,0,0,.507-.847.939.939,0,0,0-.043-.9c-.128-.256-1.148-2.767-1.575-3.768-.41-1-.832-.871-1.148-.871-.294-.026-.634-.026-.975-.026A1.926,1.926,0,0,0,12,11.476,5.7,5.7,0,0,0,10.212,15.7c0,2.485,1.828,4.894,2.082,5.253.255.333,3.6,5.458,8.712,7.661,1.22.512,2.169.82,2.911,1.074a7.067,7.067,0,0,0,3.211.207c.981-.155,3.018-1.232,3.444-2.436a4.228,4.228,0,0,0,.307-2.434c-.126-.231-.461-.359-.974-.589M20.6,37.153h-.027A17.088,17.088,0,0,1,11.94,34.8l-.615-.366L4.92,36.1,6.636,29.87l-.408-.641a16.942,16.942,0,0,1,26.387-20.9,16.72,16.72,0,0,1,4.969,11.94A16.963,16.963,0,0,1,20.613,37.155M35.052,5.892A20.741,20.741,0,0,0,20.575,0,20.31,20.31,0,0,0,2.9,30.471L0,41l10.821-2.822a20.6,20.6,0,0,0,9.754,2.472h.01A20.4,20.4,0,0,0,41,20.326a20.147,20.147,0,0,0-5.97-14.368" transform="translate(0 0)" fill="#2c2c2c"/>
</svg>
