<svg xmlns="http://www.w3.org/2000/svg" width="42.67" height="40.646" viewBox="0 0 42.67 40.646">
  <path id="Icon_simple-whatsapp" data-name="Icon simple-whatsapp" d="M33.921,23.624c-.886-.442-5.2-2.553-6.007-2.844s-1.393-.442-1.982.442-2.27,2.839-2.78,3.422-1.028.618-1.9.221a23.9,23.9,0,0,1-7.076-4.373,26.715,26.715,0,0,1-4.888-6.1c-.512-.883-.056-1.369.383-1.811.4-.4.886-1.016,1.328-1.54a7.465,7.465,0,0,0,.875-1.461A1.619,1.619,0,0,0,11.8,8.042c-.221-.442-1.979-4.77-2.715-6.5C8.377-.174,7.65.044,7.105.044,6.6,0,6.013,0,5.424,0A3.319,3.319,0,0,0,3.077,1.057,9.83,9.83,0,0,0,0,8.345c0,4.284,3.151,8.436,3.589,9.055.439.574,6.2,9.408,15.017,13.206,2.1.883,3.74,1.413,5.018,1.852a12.183,12.183,0,0,0,5.536.356c1.69-.268,5.2-2.123,5.936-4.2a7.289,7.289,0,0,0,.53-4.2c-.218-.4-.8-.618-1.678-1.016" transform="translate(7.978) rotate(14)" fill="#2c2c2c"/>
</svg>
