<svg xmlns="http://www.w3.org/2000/svg" width="37.176" height="40.997" viewBox="0 0 37.176 40.997">
  <path id="Icon_simple-email" data-name="Icon simple-email" d="M38.821,18.922a21.142,21.142,0,0,1-.681,4.586,13.27,13.27,0,0,1-1.783,4.027A9.409,9.409,0,0,1,33.334,30.4a8.531,8.531,0,0,1-4.414,1.089,6.4,6.4,0,0,1-3.192-.781,5.466,5.466,0,0,1-2.157-2.211A6.837,6.837,0,0,1,17.786,31.4a5.882,5.882,0,0,1-5.049-2.716,8.889,8.889,0,0,1-1.255-3.146,13.567,13.567,0,0,1-.164-4.1,19.064,19.064,0,0,1,1.25-5.026,13.662,13.662,0,0,1,2.311-3.85A9.775,9.775,0,0,1,18.055,10.1a8.864,8.864,0,0,1,3.863-.858,12.012,12.012,0,0,1,2.311.2,9.458,9.458,0,0,1,1.793.538,9.7,9.7,0,0,1,1.486.784c.453.292.909.594,1.363.9L27.749,24.575a4.292,4.292,0,0,0,.033,1.511,2.115,2.115,0,0,0,.461.932,1.66,1.66,0,0,0,.748.487,2.777,2.777,0,0,0,2.628-.517A5.6,5.6,0,0,0,33.029,25.2a11.549,11.549,0,0,0,.948-2.7,18.491,18.491,0,0,0,.415-3.356,21.447,21.447,0,0,0-.528-6.271,12.466,12.466,0,0,0-2.321-4.852A10.778,10.778,0,0,0,27.382,4.9a15.1,15.1,0,0,0-6.061-1.109,13.383,13.383,0,0,0-5.995,1.307,13.754,13.754,0,0,0-4.555,3.622A17.384,17.384,0,0,0,7.79,14.164a24.555,24.555,0,0,0-1.255,6.789,22.575,22.575,0,0,0,.64,6.927,12.511,12.511,0,0,0,2.531,4.965,10.562,10.562,0,0,0,4.288,2.982,16.45,16.45,0,0,0,5.918.989A20.269,20.269,0,0,0,23.8,36.4c.64-.128,1.248-.282,1.827-.451a13.748,13.748,0,0,0,1.573-.564l.812,3.653a9.015,9.015,0,0,1-1.76.871,16.942,16.942,0,0,1-2.08.6A20.3,20.3,0,0,1,19.823,41,22.785,22.785,0,0,1,11.9,39.721a14.579,14.579,0,0,1-5.774-3.8,15.945,15.945,0,0,1-3.466-6.269,26.739,26.739,0,0,1-.968-8.7A26.54,26.54,0,0,1,3.358,12.6,20.669,20.669,0,0,1,7.37,5.966a18.281,18.281,0,0,1,6.12-4.378A19.162,19.162,0,0,1,21.416,0,20.005,20.005,0,0,1,29.1,1.376,14.938,14.938,0,0,1,34.64,5.244a15.875,15.875,0,0,1,3.289,5.977A22.853,22.853,0,0,1,38.821,18.922Zm-22,2.511a8.715,8.715,0,0,0,.451,4.322,2.317,2.317,0,0,0,2.229,1.46,2.462,2.462,0,0,0,.763-.141,2.722,2.722,0,0,0,.879-.528,4.689,4.689,0,0,0,.892-1.076,8.257,8.257,0,0,0,.82-1.819l.876-10.032a5.234,5.234,0,0,0-1.363-.179,4.712,4.712,0,0,0-2.267.52,4.488,4.488,0,0,0-1.606,1.527A8.966,8.966,0,0,0,17.427,18a21.3,21.3,0,0,0-.6,3.433Z" transform="translate(-1.67)" fill="#2c2c2c"/>
</svg>
