<svg xmlns="http://www.w3.org/2000/svg" width="41.002" height="41.001" viewBox="0 0 41.002 41.001">
  <path id="Icon_awesome-linkedin-in" data-name="Icon awesome-linkedin-in" d="M9.178,41H.677V13.627h8.5ZM4.923,9.893a4.946,4.946,0,1,1,4.923-4.97A4.964,4.964,0,0,1,4.923,9.893ZM40.992,41H32.51V27.676c0-3.176-.064-7.248-4.42-7.248-4.42,0-5.1,3.45-5.1,7.02V41H14.5V13.627h8.153v3.734h.119a8.932,8.932,0,0,1,8.043-4.42C39.42,12.941,41,18.606,41,25.964V41Z" transform="translate(0 -0.001)" fill="#2c2c2c"/>
</svg>
